# xmcd
#
# Track frame offsets: 
#        150
#        17132
#        31847
#        46069
#        59255
#        77402
#        93049
#        105028
#        120734
#
# Disc length: 1758 seconds
#
# Revision: 2
# Processed by: cddbd v1.5.1PL2 Copyright (c) Steve Scherf et al.
# Submitted via: ExactAudioCopy v0.95b4
#
DISCID=5506dc09
DTITLE=Mike Stinson - Jack of All Heartache
DYEAR=2002
DGENRE=Country
TTITLE0=Jack of All Heartache
TTITLE1=I Can't Call Virginia
TTITLE2=Late Great Golden State
TTITLE3=Worthless
TTITLE4=The Desert of My Heart
TTITLE5=When My Angel Gets High
TTITLE6=The Good Old Days
TTITLE7=Fighting Off A Memory
TTITLE8=I Just Don't Think So
EXTD=
EXTT0=
EXTT1=
EXTT2=
EXTT3=
EXTT4=
EXTT5=
EXTT6=
EXTT7=
EXTT8=
PLAYORDER=
